<?xml version="1.0" encoding="UTF-8"?>
<svg xmlns="http://www.w3.org/2000/svg" viewBox="0 0 24 24">
  <rect width="24" height="24" rx="4" fill="#ffffff" />
  <g transform="translate(2.4, 2.4) scale(0.8)" stroke="#4f46e5" fill="none" stroke-width="2" stroke-linecap="round" stroke-linejoin="round">
    <path d="M12 7v4" />
    <path d="M14 21v-3a2 2 0 0 0-4 0v3" />
    <path d="M14 9h-4" />
    <path d="M18 11h2a2 2 0 0 1 2 2v6a2 2 0 0 1-2 2H4a2 2 0 0 1-2-2v-9a2 2 0 0 1 2-2h2" />
    <path d="M18 21V5a2 2 0 0 0-2-2H8a2 2 0 0 0-2 2v16" />
  </g>
</svg>